<?xml version="1.0" encoding="UTF-8"?>
<svg version="1.1" xmlns="http://www.w3.org/2000/svg" width="562" height="512">
<path d="M0 0 C0.9796875 0.17160645 1.959375 0.34321289 2.96875 0.52001953 C30.40679901 5.46576322 59.76518003 12.74611423 84 27 C78.09559547 38.88302643 72.07183339 50.70177163 66 62.5 C65.12101238 64.20959358 64.24210572 65.91922879 63.36328125 67.62890625 C61.24311622 71.75308245 59.12187145 75.8767015 57 80 C55.58447692 79.53508111 54.16955596 79.06832879 52.75488281 78.60083008 C51.96688293 78.34110916 51.17888306 78.08138824 50.36700439 77.813797 C47.49312092 76.8257305 44.69026379 75.7004798 41.87768555 74.55200195 C24.46709538 67.47788838 6.52339764 63.01233708 -12 60 C-12.68835938 59.88672363 -13.37671875 59.77344727 -14.0859375 59.65673828 C-72.69687881 50.34430709 -138.20683192 63.74784228 -187 98 C-192.54318659 102.08662038 -197.81108136 106.47573243 -203 111 C-203.5971582 111.51739746 -204.19431641 112.03479492 -204.80957031 112.56787109 C-212.34595924 119.14914916 -218.88270839 126.05303198 -225 134 C-225.78761719 134.96035156 -226.57523437 135.92070312 -227.38671875 136.91015625 C-253.19225825 168.9543976 -267.53021741 210.98800535 -267.3125 252 C-267.30976578 253.07683044 -267.30976578 253.07683044 -267.30697632 254.17541504 C-267.25401207 266.6377134 -266.40535912 278.75539627 -264 291 C-263.83371094 291.85916016 -263.66742188 292.71832031 -263.49609375 293.60351562 C-257.90615045 321.49112165 -246.79947583 348.64587023 -229 371 C-228.56864746 371.54269531 -228.13729492 372.08539063 -227.69287109 372.64453125 C-212.31922212 391.81809273 -194.19638488 406.60263041 -173 419 C-171.87078125 419.67417969 -170.7415625 420.34835937 -169.578125 421.04296875 C-116.05236153 451.37827135 -44.59707749 456.79477437 14.26342773 440.8828125 C18.53647589 439.67186194 22.77428555 438.36639869 27 437 C27.7120459 436.77086914 28.4240918 436.54173828 29.15771484 436.30566406 C45.4717514 430.92878237 60.72893376 422.92031377 74 412 C74.93779297 411.30583984 74.93779297 411.30583984 75.89453125 410.59765625 C90.70411347 399.18699454 99.76160834 380.46464126 102.56640625 362.33984375 C103.15246496 357.39497336 103.10948038 352.47269234 103.0625 347.5 C103.05573242 346.12328125 103.05573242 346.12328125 103.04882812 344.71875 C103.03716326 342.47909609 103.02079614 340.23958455 103 338 C101.87464844 338.64066406 100.74929688 339.28132813 99.58984375 339.94140625 C69.61617599 356.88790511 38.31968141 367.9276668 4 372 C3.28956543 372.0942627 2.57913086 372.18852539 1.84716797 372.28564453 C-6.77383676 373.31559573 -15.45524892 373.24376079 -24.125 373.25 C-25.39005371 373.25101212 -25.39005371 373.25101212 -26.68066406 373.25204468 C-69.55227829 373.19772412 -115.23874446 363.81564898 -147 333 C-147.68449219 332.38898438 -148.36898437 331.77796875 -149.07421875 331.1484375 C-165.25227227 316.20995979 -173.28019299 293.64404992 -174.16015625 272.07421875 C-174.90798659 243.33207557 -165.88470919 218.57847312 -146.5078125 197.2578125 C-118.28922243 167.73053419 -76.94350196 158.34941475 -37.56640625 156.87109375 C10.88028643 156.06094839 61.88712583 169.83979708 99 202 C99.81597656 202.70640625 100.63195312 203.4128125 101.47265625 204.140625 C104.0178422 206.39077393 106.51544497 208.68316219 109 211 C109.79019531 211.72445312 110.58039063 212.44890625 111.39453125 213.1953125 C119.24833996 220.68117218 125.57254489 229.29154148 132 238 C149.60169097 212.68622794 159.78032014 188.28624525 166.44677734 158.20458984 C167 156 167 156 168 154 C167.04480469 154.13277344 166.08960938 154.26554688 165.10546875 154.40234375 C154.02504437 155.91582146 143.19904033 157.07363304 132 157 C132.67436319 152.92877309 133.34987333 148.85773851 134.02636719 144.78686523 C134.25551024 143.40703252 134.48436016 142.0271511 134.71289062 140.6472168 C134.82310547 139.98181885 134.93332031 139.3164209 135.046875 138.63085938 C135.15614319 137.96917755 135.26541138 137.30749573 135.37799072 136.62576294 C135.70842216 134.65174555 136.0528907 132.68009467 136.39746094 130.70849609 C136.77698095 128.37263344 137.09632819 126.02542742 137.32910156 123.67041016 C137.43963867 122.69249512 137.55017578 121.71458008 137.6640625 120.70703125 C137.73318848 119.86245361 137.80231445 119.01787598 137.87353516 118.14770508 C139.70529982 114.65528338 143.43036692 114.15609061 147 113 C149.70783337 112.20303136 152.43295835 111.50211606 155.17260742 110.82348633 C155.94602982 110.62797684 156.71945221 110.43246735 157.51631165 110.23103333 C160.04486095 109.59327118 162.57505675 108.96235886 165.10546875 108.33203125 C166.87573671 107.88815419 168.64594348 107.44403301 170.41609192 106.99967957 C174.11280149 106.07290895 177.81036397 105.14964073 181.50854492 104.22875977 C186.2447909 103.04900747 190.97856643 101.85965758 195.71172619 100.66759205 C199.36095734 99.74979468 203.01154771 98.83750244 206.66256142 97.92682457 C208.40889649 97.49044562 210.15478108 97.05225974 211.90019798 96.61222267 C214.33728591 95.99859407 216.77613138 95.39251054 219.21557617 94.78833008 C219.93309052 94.60602844 220.65060486 94.42372681 221.38986206 94.23590088 C224.9991614 93.35065747 228.28054337 92.79352795 232 93 C231.74759348 101.29938616 231.48256045 109.59816828 231.1995697 117.89656067 C231.06225633 121.96849432 230.94710702 126.04017677 230.8515625 130.11328125 C229.89293025 164.84574538 220.43110196 200.489276 203.99121094 231.13964844 C202.99388379 233.01147919 202.02931332 234.89734819 201.0703125 236.7890625 C191.63457691 255.22038968 179.16596695 271.39304172 165.6640625 287.00390625 C165.21321289 287.53129395 164.76236328 288.05868164 164.29785156 288.60205078 C163 290 163 290 160.5859375 291.83984375 C158.69459914 294.41597703 158.84231998 295.10790784 159.15625 298.19921875 C159.41596893 299.80311433 159.69758615 301.4036038 160 303 C160.17982422 304.09948975 160.17982422 304.09948975 160.36328125 305.22119141 C160.72323656 307.42196215 161.11074742 309.61674086 161.5 311.8125 C168.43440035 352.59228486 161.26971139 394.07158169 137.1875 428.25 C132.44651509 434.77361008 127.08979765 440.69028893 121.48046875 446.47265625 C120.0584532 447.93969604 118.6536671 449.4216799 117.25 450.90625 C80.70280934 488.72834266 22.12405881 508.14955267 -29.59375 509.16113281 C-31.56245295 509.18065671 -33.53121946 509.19442698 -35.5 509.203125 C-36.56598419 509.21013931 -37.63196838 509.21715363 -38.73025513 509.22438049 C-42.15354683 509.24179656 -45.57666561 509.2482332 -49 509.25 C-50.16883728 509.25067474 -51.33767456 509.25134949 -52.54193115 509.25204468 C-69.55729557 509.23641656 -86.18936792 508.86799232 -103 506 C-104.05574219 505.82839355 -105.11148438 505.65678711 -106.19921875 505.47998047 C-152.75127882 497.77409952 -197.84404739 480.53005841 -235 451 C-235.89589844 450.29617188 -236.79179687 449.59234375 -237.71484375 448.8671875 C-245.13580524 442.92615951 -252.0996467 436.52965314 -259 430 C-259.680625 429.36191406 -260.36125 428.72382813 -261.0625 428.06640625 C-265.30628883 423.9699712 -268.99310371 419.47094021 -272.68359375 414.875 C-274.17495378 413.0240034 -275.68661746 411.18909151 -277.22265625 409.375 C-310.10425911 370.40421142 -329.94703942 316.05132703 -330.203125 265.13671875 C-330.20882507 264.22404739 -330.21452515 263.31137604 -330.22039795 262.37104797 C-330.2297815 260.44749077 -330.23635522 258.52391798 -330.24023438 256.6003418 C-330.24984878 253.73260453 -330.28089874 250.86561394 -330.3125 247.99804688 C-330.41186513 230.82394761 -328.42713858 214.17549371 -324.25 197.5 C-323.99395996 196.46157959 -323.73791992 195.42315918 -323.47412109 194.35327148 C-314.42674135 158.60276039 -298.09733283 125.72474777 -275 97 C-274.18273437 95.97648437 -273.36546875 94.95296875 -272.5234375 93.8984375 C-261.7683364 80.68767408 -249.56477175 68.31371075 -236 58 C-234.82501566 57.07355701 -233.65057379 56.14642576 -232.4765625 55.21875 C-222.19425087 47.19640206 -211.32239248 40.44946407 -200 34 C-198.95537598 33.39526855 -198.95537598 33.39526855 -197.88964844 32.77832031 C-168.14723529 15.66804536 -134.61505097 5.87739051 -101 0 C-100.00291016 -0.17934082 -99.00582031 -0.35868164 -97.97851562 -0.54345703 C-66.72238496 -5.89997908 -31.19158076 -5.59722869 0 0 Z M-104.0625 238.83203125 C-110.89100082 246.47279326 -114.597844 255.13726051 -114.3125 265.4453125 C-113.21289375 274.43459357 -110.24843698 282.41304725 -104 289 C-103.39800781 289.65355469 -102.79601562 290.30710937 -102.17578125 290.98046875 C-88.22479757 304.71886601 -67.76363142 309.37648094 -49 312 C-47.97096558 312.14683228 -47.97096558 312.14683228 -46.92114258 312.29663086 C-38.85390797 313.27482123 -30.74037905 313.18607687 -22.62670898 313.18530273 C-20.09926973 313.18746849 -17.57228311 313.20561779 -15.04492188 313.22460938 C-0.49480731 313.27538568 14.18676203 312.45095336 28.4375 309.3125 C29.20787598 309.14371338 29.97825195 308.97492676 30.77197266 308.80102539 C51.50942677 304.01111293 72.2094704 295.26044521 89 282 C84.55888277 272.47994552 80.19483698 263.78396126 73 256 C72.11570312 255.02417969 71.23140625 254.04835938 70.3203125 253.04296875 C48.29017967 229.4690154 13.9442574 218.20276574 -17.74365234 216.83886719 C-47.511593 216.5135345 -80.93838047 216.85561619 -104.0625 238.83203125 Z " fill="#2196F3" transform="translate(330,3)"/>
</svg>
