<svg width="32" height="32" viewBox="0 0 32 32" fill="none" xmlns="http://www.w3.org/2000/svg">
  <style>
    .background {
      fill: transparent;
    }
    .logo {
      fill: #2196F3;
    }
  </style>
  <rect width="32" height="32" rx="4" class="background"/>
  <g transform="translate(2, 2) scale(0.039)">
    <path d="M392.016 486.857C441.447 484.649 501.059 472.629 546.32 446.135C552.82 534.817 443.655 570.265 360.615 570.265C277.575 570.265 209.991 545.365 160.56 498.264C114.808 454.721 91.2577 393.882 91.2577 327.034C91.2577 260.185 126.706 163.53 231.456 115.571C300.145 84.1704 399.13 72.5179 495.907 119.864L536.507 41.4853C412.009 -20.2117 282.114 -5.24743 193.309 35.4751C50.6578 100.852 0 233.445 0 327.156C0 420.867 34.9576 501.822 98.3719 562.169C164.607 625.093 255.252 658.456 360.615 658.456C474.319 658.456 565.209 613.931 610.224 536.166C630.708 500.84 643.465 450.06 627.642 384.192C677.441 332.308 726.504 249.514 720.739 121.213H632.303C634.02 191.006 624.33 251.599 588.023 300.539C522.647 207.319 389.808 186.345 304.315 213.207C231.456 236.144 191.592 291.217 197.848 360.519C204.594 436.199 278.189 486.612 392.138 486.612L392.016 486.857ZM395.45 398.543C337.31 398.543 285.548 382.107 285.548 342.366C285.548 302.625 347.368 289.746 381.099 289.746C434.823 289.746 499.219 306.427 526.326 363.095C481.311 393.514 441.815 398.421 395.573 398.421L395.45 398.543Z" class="logo"/>
  </g>
</svg>
